  0
SECTION
  2
HEADER
  9
$ACADVER
  1
AC1015
  9
$DWGCODEPAGE
  3
ANSI_1252
  9
$INSBASE
 10
0
 20
0
 30
0
  9
$EXTMIN
 10
-13.2776546738526
 20
-58.555309347705204
 30
0
  9
$EXTMAX
 10
213.2776546738526
 20
178.5553093477052
 30
0
  9
$LIMMIN
 10
0
 20
0
  9
$LIMMAX
 10
226.5553093477052
 20
237.11061869541038
  9
$LTSCALE
 40
1
  9
$PSLTSCALE
 70
0
  9
$INSUNITS
 70
4
  9
$MEASUREMENT
 70
1
  9
$LUNITS
 70
2
  9
$LWDISPLAY
290
1
  9
$HANDSEED
  5
6D
  0
ENDSEC
  0
SECTION
  2
CLASSES
  0
ENDSEC
  0
SECTION
  2
TABLES
  0
TABLE
  2
VPORT
  5
11
330
0
100
AcDbSymbolTable
 70
1
  0
VPORT
  5
1E
330
11
100
AcDbSymbolTableRecord
100
AcDbViewportTableRecord
  2
*Active
 70
0
 10
0
 20
0
 11
1
 21
1
 12
100
 22
59.99999999999999
 13
0
 23
0
 14
10
 24
10
 15
10
 25
10
 16
0
 26
0
 36
1
 17
0
 27
0
 37
0
 40
260.82168056495146
 41
0.9554836075845915
 42
50
 43
0
 44
0
 50
0
 51
0
 71
0
 72
100
 73
1
 74
3
 75
0
 76
0
 77
0
 78
0
  0
ENDTAB
  0
TABLE
  2
LTYPE
  5
12
330
0
100
AcDbSymbolTable
 70
5
  0
LTYPE
  5
1F
330
12
100
AcDbSymbolTableRecord
100
AcDbLinetypeTableRecord
  2
ByBlock
 70
0
  3

 72
65
 73
0
 40
0
  0
LTYPE
  5
20
330
12
100
AcDbSymbolTableRecord
100
AcDbLinetypeTableRecord
  2
ByLayer
 70
0
  3

 72
65
 73
0
 40
0
  0
LTYPE
  5
21
330
12
100
AcDbSymbolTableRecord
100
AcDbLinetypeTableRecord
  2
Continuous
 70
0
  3
Solid line
 72
65
 73
0
 40
0
  0
LTYPE
  5
22
330
12
100
AcDbSymbolTableRecord
100
AcDbLinetypeTableRecord
  2
HIDDEN
 70
0
  3
Hidden __ __ __
 72
65
 73
2
 40
2.8
 49
2
 74
0
 49
-0.8
 74
0
  0
LTYPE
  5
23
330
12
100
AcDbSymbolTableRecord
100
AcDbLinetypeTableRecord
  2
PHANTOM
 70
0
  3
Phantom ____ _ _ ____
 72
65
 73
6
 40
7.999999999999999
 49
4
 74
0
 49
-0.8
 74
0
 49
0.8
 74
0
 49
-0.8
 74
0
 49
0.8
 74
0
 49
-0.8
 74
0
  0
ENDTAB
  0
TABLE
  2
LAYER
  5
13
330
0
100
AcDbSymbolTable
 70
18
  0
LAYER
  5
24
330
13
100
AcDbSymbolTableRecord
100
AcDbLayerTableRecord
  2
0
 70
0
 62
7
  6
Continuous
370
-3
  0
LAYER
  5
25
330
13
100
AcDbSymbolTableRecord
100
AcDbLayerTableRecord
  2
BORDER
 70
0
 62
7
  6
Continuous
370
-3
  0
LAYER
  5
26
330
13
100
AcDbSymbolTableRecord
100
AcDbLayerTableRecord
  2
VISIBLE
 70
0
 62
7
  6
Continuous
370
-3
  0
LAYER
  5
27
330
13
100
AcDbSymbolTableRecord
100
AcDbLayerTableRecord
  2
HIDDEN
 70
0
 62
7
  6
HIDDEN
370
-3
  0
LAYER
  5
28
330
13
100
AcDbSymbolTableRecord
100
AcDbLayerTableRecord
  2
TANGENT
 70
0
 62
7
  6
Continuous
370
-3
  0
LAYER
  5
29
330
13
100
AcDbSymbolTableRecord
100
AcDbLayerTableRecord
  2
PHANTOM
 70
0
 62
7
  6
PHANTOM
370
-3
  0
LAYER
  5
2A
330
13
100
AcDbSymbolTableRecord
100
AcDbLayerTableRecord
  2
VIEW_SKETCH
 70
0
 62
7
  6
Continuous
370
-3
  0
LAYER
  5
2B
330
13
100
AcDbSymbolTableRecord
100
AcDbLayerTableRecord
  2
ANNOTATION
 70
0
 62
7
  6
Continuous
370
-3
  0
LAYER
  5
2C
330
13
100
AcDbSymbolTableRecord
100
AcDbLayerTableRecord
  2
NOTES
 70
0
 62
7
  6
Continuous
370
-3
  0
LAYER
  5
2D
330
13
100
AcDbSymbolTableRecord
100
AcDbLayerTableRecord
  2
TABLES
 70
0
 62
7
  6
Continuous
370
-3
  0
LAYER
  5
2E
330
13
100
AcDbSymbolTableRecord
100
AcDbLayerTableRecord
  2
SHEET_SKETCH
 70
0
 62
7
  6
Continuous
370
-3
  0
LAYER
  5
2F
330
13
100
AcDbSymbolTableRecord
100
AcDbLayerTableRecord
  2
IMPORT
 70
0
 62
7
  6
Continuous
370
-3
  0
LAYER
  5
30
330
13
100
AcDbSymbolTableRecord
100
AcDbLayerTableRecord
  2
SHADED
 70
0
 62
7
  6
Continuous
370
-3
  0
LAYER
  5
31
330
13
100
AcDbSymbolTableRecord
100
AcDbLayerTableRecord
  2
IMAGES
 70
0
 62
7
  6
Continuous
370
-3
  0
LAYER
  5
32
330
13
100
AcDbSymbolTableRecord
100
AcDbLayerTableRecord
  2
HATCH
 70
0
 62
7
  6
Continuous
370
-3
  0
LAYER
  5
33
330
13
100
AcDbSymbolTableRecord
100
AcDbLayerTableRecord
  2
OUTLINE
 70
0
 62
7
  6
Continuous
370
-3
  0
LAYER
  5
34
330
13
100
AcDbSymbolTableRecord
100
AcDbLayerTableRecord
  2
CUTOUTS
 70
0
 62
5
  6
Continuous
370
-3
  0
LAYER
  5
35
330
13
100
AcDbSymbolTableRecord
100
AcDbLayerTableRecord
  2
BEND_UP
 70
0
 62
3
  6
PHANTOM
370
-3
  0
ENDTAB
  0
TABLE
  2
STYLE
  5
14
330
0
100
AcDbSymbolTable
 70
2
  0
STYLE
  5
36
330
14
100
AcDbSymbolTableRecord
100
AcDbTextStyleTableRecord
  2
Standard
 70
0
 40
0
 41
1
 50
0
 71
0
 42
2.5
  3
txt
  4

  0
STYLE
  5
37
330
14
100
AcDbSymbolTableRecord
100
AcDbTextStyleTableRecord
  2
INTER
 70
0
 40
0
 41
1
 50
0
 71
0
 42
2.5
  3
Inter-Medium.ttf
  4

  0
ENDTAB
  0
TABLE
  2
VIEW
  5
15
330
0
100
AcDbSymbolTable
 70
0
  0
ENDTAB
  0
TABLE
  2
UCS
  5
16
330
0
100
AcDbSymbolTable
 70
0
  0
ENDTAB
  0
TABLE
  2
APPID
  5
17
330
0
100
AcDbSymbolTable
 70
1
  0
APPID
  5
38
330
17
100
AcDbSymbolTableRecord
100
AcDbRegAppTableRecord
  2
ACAD
 70
0
  0
ENDTAB
  0
TABLE
  2
DIMSTYLE
  5
18
330
0
100
AcDbSymbolTable
 70
1
100
AcDbDimStyleTable
  0
DIMSTYLE
105
39
330
18
100
AcDbSymbolTableRecord
100
AcDbDimStyleTableRecord
  2
Standard
 70
0
  0
ENDTAB
  0
TABLE
  2
BLOCK_RECORD
  5
19
330
0
100
AcDbSymbolTable
 70
2
  0
BLOCK_RECORD
  5
1A
330
19
100
AcDbSymbolTableRecord
100
AcDbBlockTableRecord
  2
*Model_Space
 70
0
  0
BLOCK_RECORD
  5
1B
330
19
100
AcDbSymbolTableRecord
100
AcDbBlockTableRecord
  2
*Paper_Space
 70
0
  0
ENDTAB
  0
ENDSEC
  0
SECTION
  2
BLOCKS
  0
BLOCK
  5
3A
330
1A
100
AcDbEntity
  8
0
100
AcDbBlockBegin
  2
*Model_Space
 70
0
 10
0
 20
0
 30
0
  3
*Model_Space
  1

  0
ENDBLK
  5
3B
330
1A
100
AcDbEntity
  8
0
100
AcDbBlockEnd
  0
BLOCK
  5
3C
330
1B
100
AcDbEntity
 67
1
  8
0
100
AcDbBlockBegin
  2
*Paper_Space
 70
0
 10
0
 20
0
 30
0
  3
*Paper_Space
  1

  0
ENDBLK
  5
3D
330
1B
100
AcDbEntity
 67
1
  8
0
100
AcDbBlockEnd
  0
ENDSEC
  0
SECTION
  2
ENTITIES
  0
LINE
  5
3E
330
1A
100
AcDbEntity
  8
OUTLINE
370
25
100
AcDbLine
 10
0
 20
112
 30
0
 11
1.9999999999999998
 21
112
 31
0
  0
ARC
  5
3F
330
1A
100
AcDbEntity
  8
OUTLINE
370
25
100
AcDbCircle
 10
2
 20
111.00000000000045
 30
0
 40
0.9999999999995453
100
AcDbArc
 50
-90.00000000000001
 51
90.00000000000001
  0
LINE
  5
40
330
1A
100
AcDbEntity
  8
OUTLINE
370
25
100
AcDbLine
 10
1.9999999999999998
 20
110
 30
0
 11
-13.2776546738526
 21
110
 31
0
  0
LINE
  5
41
330
1A
100
AcDbEntity
  8
OUTLINE
370
25
100
AcDbLine
 10
-13.2776546738526
 20
110
 30
0
 11
-13.2776546738526
 21
10
 31
0
  0
LINE
  5
42
330
1A
100
AcDbEntity
  8
OUTLINE
370
25
100
AcDbLine
 10
-13.2776546738526
 20
10
 30
0
 11
1.9999999999999998
 21
10
 31
0
  0
ARC
  5
43
330
1A
100
AcDbEntity
  8
OUTLINE
370
25
100
AcDbCircle
 10
2
 20
9.000000000000004
 30
0
 40
0.9999999999999964
100
AcDbArc
 50
-90.00000000000001
 51
90.00000000000001
  0
LINE
  5
44
330
1A
100
AcDbEntity
  8
OUTLINE
370
25
100
AcDbLine
 10
1.9999999999999998
 20
8
 30
0
 11
0
 21
8
 31
0
  0
LINE
  5
45
330
1A
100
AcDbEntity
  8
OUTLINE
370
25
100
AcDbLine
 10
0
 20
8
 30
0
 11
0
 21
-58.555309347705204
 31
0
  0
LINE
  5
46
330
1A
100
AcDbEntity
  8
OUTLINE
370
25
100
AcDbLine
 10
0
 20
-58.555309347705204
 30
0
 11
200
 21
-58.555309347705204
 31
0
  0
LINE
  5
47
330
1A
100
AcDbEntity
  8
OUTLINE
370
25
100
AcDbLine
 10
200
 20
-58.555309347705204
 30
0
 11
200
 21
8
 31
0
  0
LINE
  5
48
330
1A
100
AcDbEntity
  8
OUTLINE
370
25
100
AcDbLine
 10
200
 20
8
 30
0
 11
198
 21
8
 31
0
  0
ARC
  5
49
330
1A
100
AcDbEntity
  8
OUTLINE
370
25
100
AcDbCircle
 10
198
 20
9
 30
0
 40
1
100
AcDbArc
 50
90
 51
270
  0
LINE
  5
4A
330
1A
100
AcDbEntity
  8
OUTLINE
370
25
100
AcDbLine
 10
198
 20
10
 30
0
 11
213.2776546738526
 21
10
 31
0
  0
LINE
  5
4B
330
1A
100
AcDbEntity
  8
OUTLINE
370
25
100
AcDbLine
 10
213.2776546738526
 20
10
 30
0
 11
213.2776546738526
 21
110
 31
0
  0
LINE
  5
4C
330
1A
100
AcDbEntity
  8
OUTLINE
370
25
100
AcDbLine
 10
213.2776546738526
 20
110
 30
0
 11
198
 21
110
 31
0
  0
ARC
  5
4D
330
1A
100
AcDbEntity
  8
OUTLINE
370
25
100
AcDbCircle
 10
198
 20
111
 30
0
 40
1
100
AcDbArc
 50
90
 51
270
  0
LINE
  5
4E
330
1A
100
AcDbEntity
  8
OUTLINE
370
25
100
AcDbLine
 10
198
 20
112
 30
0
 11
200
 21
112
 31
0
  0
LINE
  5
4F
330
1A
100
AcDbEntity
  8
OUTLINE
370
25
100
AcDbLine
 10
200
 20
112
 30
0
 11
200
 21
178.5553093477052
 31
0
  0
LINE
  5
50
330
1A
100
AcDbEntity
  8
OUTLINE
370
25
100
AcDbLine
 10
200
 20
178.5553093477052
 30
0
 11
0
 21
178.5553093477052
 31
0
  0
LINE
  5
51
330
1A
100
AcDbEntity
  8
OUTLINE
370
25
100
AcDbLine
 10
0
 20
178.5553093477052
 30
0
 11
0
 21
112
 31
0
  0
CIRCLE
  5
52
330
1A
100
AcDbEntity
  8
CUTOUTS
370
25
100
AcDbCircle
 10
14.999999999999996
 20
14.999999999999993
 30
0
 40
1.9999999999999993
  0
CIRCLE
  5
53
330
1A
100
AcDbEntity
  8
CUTOUTS
370
25
100
AcDbCircle
 10
14.999999999999996
 20
104.99999999999999
 30
0
 40
2.000000000000001
  0
ARC
  5
54
330
1A
100
AcDbEntity
  8
CUTOUTS
370
25
100
AcDbCircle
 10
60
 20
-35.277654673852645
 30
0
 40
3
100
AcDbArc
 50
179.99999999999918
 51
360.0000000000008
  0
LINE
  5
55
330
1A
100
AcDbEntity
  8
CUTOUTS
370
25
100
AcDbLine
 10
57
 20
-35.2776546738526
 30
0
 11
57
 21
-11.2776546738526
 31
0
  0
ARC
  5
56
330
1A
100
AcDbEntity
  8
CUTOUTS
370
25
100
AcDbCircle
 10
60
 20
-11.277654673852643
 30
0
 40
3
100
AcDbArc
 50
0.0000000000008142219984546603
 51
179.99999999999918
  0
LINE
  5
57
330
1A
100
AcDbEntity
  8
CUTOUTS
370
25
100
AcDbLine
 10
63
 20
-11.2776546738526
 30
0
 11
63
 21
-35.2776546738526
 31
0
  0
CIRCLE
  5
58
330
1A
100
AcDbEntity
  8
CUTOUTS
370
25
100
AcDbCircle
 10
100.00000000000001
 20
59.99999999999998
 30
0
 40
30.000000000000004
  0
LINE
  5
59
330
1A
100
AcDbEntity
  8
CUTOUTS
370
25
100
AcDbLine
 10
120
 20
133.2776546738526
 30
0
 11
80
 21
133.2776546738526
 31
0
  0
LINE
  5
5A
330
1A
100
AcDbEntity
  8
CUTOUTS
370
25
100
AcDbLine
 10
80
 20
133.2776546738526
 30
0
 11
80
 21
153.2776546738526
 31
0
  0
LINE
  5
5B
330
1A
100
AcDbEntity
  8
CUTOUTS
370
25
100
AcDbLine
 10
80
 20
153.2776546738526
 30
0
 11
120
 21
153.2776546738526
 31
0
  0
LINE
  5
5C
330
1A
100
AcDbEntity
  8
CUTOUTS
370
25
100
AcDbLine
 10
120
 20
153.2776546738526
 30
0
 11
120
 21
133.2776546738526
 31
0
  0
ARC
  5
5D
330
1A
100
AcDbEntity
  8
CUTOUTS
370
25
100
AcDbCircle
 10
100.0000000000001
 20
-35.27765467385254
 30
0
 40
2.9999999999999005
100
AcDbArc
 50
-179.99999999999878
 51
-0.000000000001221332997682031
  0
LINE
  5
5E
330
1A
100
AcDbEntity
  8
CUTOUTS
370
25
100
AcDbLine
 10
97
 20
-35.2776546738526
 30
0
 11
97
 21
-11.2776546738526
 31
0
  0
ARC
  5
5F
330
1A
100
AcDbEntity
  8
CUTOUTS
370
25
100
AcDbCircle
 10
100
 20
-11.27765467385244
 30
0
 40
3
100
AcDbArc
 50
-0.000000000003053332494204976
 51
180.00000000000304
  0
LINE
  5
60
330
1A
100
AcDbEntity
  8
CUTOUTS
370
25
100
AcDbLine
 10
103
 20
-11.2776546738526
 30
0
 11
103
 21
-35.2776546738526
 31
0
  0
ARC
  5
61
330
1A
100
AcDbEntity
  8
CUTOUTS
370
25
100
AcDbCircle
 10
140
 20
-35.27765467385244
 30
0
 40
3
100
AcDbArc
 50
-179.9999999999969
 51
-0.0000000000031211843274095314
  0
LINE
  5
62
330
1A
100
AcDbEntity
  8
CUTOUTS
370
25
100
AcDbLine
 10
137
 20
-35.2776546738526
 30
0
 11
137
 21
-11.2776546738526
 31
0
  0
ARC
  5
63
330
1A
100
AcDbEntity
  8
CUTOUTS
370
25
100
AcDbCircle
 10
140
 20
-11.277654673852844
 30
0
 40
3
100
AcDbArc
 50
0.000000000004647850574512019
 51
179.99999999999537
  0
LINE
  5
64
330
1A
100
AcDbEntity
  8
CUTOUTS
370
25
100
AcDbLine
 10
143
 20
-11.2776546738526
 30
0
 11
143
 21
-35.2776546738526
 31
0
  0
CIRCLE
  5
65
330
1A
100
AcDbEntity
  8
CUTOUTS
370
25
100
AcDbCircle
 10
185
 20
14.999999999999993
 30
0
 40
2.0000000000000004
  0
CIRCLE
  5
66
330
1A
100
AcDbEntity
  8
CUTOUTS
370
25
100
AcDbCircle
 10
185
 20
104.99999999999999
 30
0
 40
2.000000000000001
  0
LINE
  5
67
330
1A
100
AcDbEntity
  8
BEND_UP
  6
PHANTOM
370
25
100
AcDbLine
 10
200
 20
0.8611726630736998
 30
0
 11
0
 21
0.8611726630736998
 31
0
  0
LINE
  5
68
330
1A
100
AcDbEntity
  8
BEND_UP
  6
PHANTOM
370
25
100
AcDbLine
 10
0
 20
119.1388273369263
 30
0
 11
200
 21
119.1388273369263
 31
0
  0
LINE
  5
69
330
1A
100
AcDbEntity
  8
BEND_UP
  6
PHANTOM
370
25
100
AcDbLine
 10
0
 20
-47.4164820107789
 30
0
 11
200
 21
-47.4164820107789
 31
0
  0
LINE
  5
6A
330
1A
100
AcDbEntity
  8
BEND_UP
  6
PHANTOM
370
25
100
AcDbLine
 10
0
 20
167.4164820107789
 30
0
 11
200
 21
167.4164820107789
 31
0
  0
LINE
  5
6B
330
1A
100
AcDbEntity
  8
BEND_UP
  6
PHANTOM
370
25
100
AcDbLine
 10
199.1388273369263
 20
10
 30
0
 11
199.1388273369263
 21
110
 31
0
  0
LINE
  5
6C
330
1A
100
AcDbEntity
  8
BEND_UP
  6
PHANTOM
370
25
100
AcDbLine
 10
0.8611726630736998
 20
110
 30
0
 11
0.8611726630736998
 21
10
 31
0
  0
ENDSEC
  0
SECTION
  2
OBJECTS
  0
DICTIONARY
  5
1C
330
0
100
AcDbDictionary
281
1
  3
ACAD_GROUP
350
1D
  0
DICTIONARY
  5
1D
330
1C
100
AcDbDictionary
281
1
  0
ENDSEC
  0
EOF
