  0
SECTION
  2
HEADER
  9
$ACADVER
  1
AC1015
  9
$DWGCODEPAGE
  3
ANSI_1252
  9
$INSBASE
 10
0
 20
0
 30
0
  9
$EXTMIN
 10
-13.2776546738526
 20
-58.555309347705204
 30
0
  9
$EXTMAX
 10
213.2776546738526
 20
178.5553093477052
 30
0
  9
$LIMMIN
 10
0
 20
0
  9
$LIMMAX
 10
226.5553093477052
 20
237.11061869541038
  9
$LTSCALE
 40
1
  9
$PSLTSCALE
 70
0
  9
$INSUNITS
 70
4
  9
$MEASUREMENT
 70
1
  9
$LUNITS
 70
2
  9
$LWDISPLAY
290
1
  9
$HANDSEED
  5
52
  0
ENDSEC
  0
SECTION
  2
CLASSES
  0
ENDSEC
  0
SECTION
  2
TABLES
  0
TABLE
  2
VPORT
  5
11
330
0
100
AcDbSymbolTable
 70
1
  0
VPORT
  5
1E
330
11
100
AcDbSymbolTableRecord
100
AcDbViewportTableRecord
  2
*Active
 70
0
 10
0
 20
0
 11
1
 21
1
 12
100
 22
59.99999999999999
 13
0
 23
0
 14
10
 24
10
 15
10
 25
10
 16
0
 26
0
 36
1
 17
0
 27
0
 37
0
 40
260.82168056495146
 41
0.9554836075845915
 42
50
 43
0
 44
0
 50
0
 51
0
 71
0
 72
100
 73
1
 74
3
 75
0
 76
0
 77
0
 78
0
  0
ENDTAB
  0
TABLE
  2
LTYPE
  5
12
330
0
100
AcDbSymbolTable
 70
5
  0
LTYPE
  5
1F
330
12
100
AcDbSymbolTableRecord
100
AcDbLinetypeTableRecord
  2
ByBlock
 70
0
  3

 72
65
 73
0
 40
0
  0
LTYPE
  5
20
330
12
100
AcDbSymbolTableRecord
100
AcDbLinetypeTableRecord
  2
ByLayer
 70
0
  3

 72
65
 73
0
 40
0
  0
LTYPE
  5
21
330
12
100
AcDbSymbolTableRecord
100
AcDbLinetypeTableRecord
  2
Continuous
 70
0
  3
Solid line
 72
65
 73
0
 40
0
  0
LTYPE
  5
22
330
12
100
AcDbSymbolTableRecord
100
AcDbLinetypeTableRecord
  2
HIDDEN
 70
0
  3
Hidden __ __ __
 72
65
 73
2
 40
2.8
 49
2
 74
0
 49
-0.8
 74
0
  0
LTYPE
  5
23
330
12
100
AcDbSymbolTableRecord
100
AcDbLinetypeTableRecord
  2
PHANTOM
 70
0
  3
Phantom ____ _ _ ____
 72
65
 73
6
 40
7.999999999999999
 49
4
 74
0
 49
-0.8
 74
0
 49
0.8
 74
0
 49
-0.8
 74
0
 49
0.8
 74
0
 49
-0.8
 74
0
  0
ENDTAB
  0
TABLE
  2
LAYER
  5
13
330
0
100
AcDbSymbolTable
 70
22
  0
LAYER
  5
24
330
13
100
AcDbSymbolTableRecord
100
AcDbLayerTableRecord
  2
0
 70
0
 62
7
  6
Continuous
370
-3
  0
LAYER
  5
25
330
13
100
AcDbSymbolTableRecord
100
AcDbLayerTableRecord
  2
BORDER
 70
0
 62
7
  6
Continuous
370
-3
  0
LAYER
  5
26
330
13
100
AcDbSymbolTableRecord
100
AcDbLayerTableRecord
  2
VISIBLE
 70
0
 62
7
  6
Continuous
370
-3
  0
LAYER
  5
27
330
13
100
AcDbSymbolTableRecord
100
AcDbLayerTableRecord
  2
HIDDEN
 70
0
 62
7
  6
HIDDEN
370
-3
  0
LAYER
  5
28
330
13
100
AcDbSymbolTableRecord
100
AcDbLayerTableRecord
  2
TANGENT
 70
0
 62
7
  6
Continuous
370
-3
  0
LAYER
  5
29
330
13
100
AcDbSymbolTableRecord
100
AcDbLayerTableRecord
  2
PHANTOM
 70
0
 62
7
  6
PHANTOM
370
-3
  0
LAYER
  5
2A
330
13
100
AcDbSymbolTableRecord
100
AcDbLayerTableRecord
  2
VIEW_SKETCH
 70
0
 62
7
  6
Continuous
370
-3
  0
LAYER
  5
2B
330
13
100
AcDbSymbolTableRecord
100
AcDbLayerTableRecord
  2
ANNOTATION
 70
0
 62
7
  6
Continuous
370
-3
  0
LAYER
  5
2C
330
13
100
AcDbSymbolTableRecord
100
AcDbLayerTableRecord
  2
NOTES
 70
0
 62
7
  6
Continuous
370
-3
  0
LAYER
  5
2D
330
13
100
AcDbSymbolTableRecord
100
AcDbLayerTableRecord
  2
TABLES
 70
0
 62
7
  6
Continuous
370
-3
  0
LAYER
  5
2E
330
13
100
AcDbSymbolTableRecord
100
AcDbLayerTableRecord
  2
SHEET_SKETCH
 70
0
 62
7
  6
Continuous
370
-3
  0
LAYER
  5
2F
330
13
100
AcDbSymbolTableRecord
100
AcDbLayerTableRecord
  2
IMPORT
 70
0
 62
7
  6
Continuous
370
-3
  0
LAYER
  5
30
330
13
100
AcDbSymbolTableRecord
100
AcDbLayerTableRecord
  2
SHADED
 70
0
 62
7
  6
Continuous
370
-3
  0
LAYER
  5
31
330
13
100
AcDbSymbolTableRecord
100
AcDbLayerTableRecord
  2
IMAGES
 70
0
 62
7
  6
Continuous
370
-3
  0
LAYER
  5
32
330
13
100
AcDbSymbolTableRecord
100
AcDbLayerTableRecord
  2
HATCH
 70
0
 62
7
  6
Continuous
370
-3
  0
LAYER
  5
33
330
13
100
AcDbSymbolTableRecord
100
AcDbLayerTableRecord
  2
OUTLINE
 70
0
 62
7
  6
Continuous
370
-3
  0
LAYER
  5
34
330
13
100
AcDbSymbolTableRecord
100
AcDbLayerTableRecord
  2
CUTOUTS
 70
0
 62
5
  6
Continuous
370
-3
  0
LAYER
  5
35
330
13
100
AcDbSymbolTableRecord
100
AcDbLayerTableRecord
  2
TEAR_SLITS
 70
0
 62
6
  6
Continuous
370
-3
  0
LAYER
  5
36
330
13
100
AcDbSymbolTableRecord
100
AcDbLayerTableRecord
  2
BEND_UP
 70
0
 62
3
  6
PHANTOM
370
-3
  0
LAYER
  5
37
330
13
100
AcDbSymbolTableRecord
100
AcDbLayerTableRecord
  2
BEND_DOWN
 70
0
 62
1
  6
HIDDEN
370
-3
  0
LAYER
  5
38
330
13
100
AcDbSymbolTableRecord
100
AcDbLayerTableRecord
  2
BEND_TANGENT
 70
0
 62
8
  6
Continuous
370
-3
  0
LAYER
  5
39
330
13
100
AcDbSymbolTableRecord
100
AcDbLayerTableRecord
  2
FLAT_SKETCH
 70
0
 62
4
  6
Continuous
370
-3
  0
ENDTAB
  0
TABLE
  2
STYLE
  5
14
330
0
100
AcDbSymbolTable
 70
2
  0
STYLE
  5
3A
330
14
100
AcDbSymbolTableRecord
100
AcDbTextStyleTableRecord
  2
Standard
 70
0
 40
0
 41
1
 50
0
 71
0
 42
2.5
  3
txt
  4

  0
STYLE
  5
3B
330
14
100
AcDbSymbolTableRecord
100
AcDbTextStyleTableRecord
  2
INTER
 70
0
 40
0
 41
1
 50
0
 71
0
 42
2.5
  3
Inter-Medium.ttf
  4

  0
ENDTAB
  0
TABLE
  2
VIEW
  5
15
330
0
100
AcDbSymbolTable
 70
0
  0
ENDTAB
  0
TABLE
  2
UCS
  5
16
330
0
100
AcDbSymbolTable
 70
0
  0
ENDTAB
  0
TABLE
  2
APPID
  5
17
330
0
100
AcDbSymbolTable
 70
1
  0
APPID
  5
3C
330
17
100
AcDbSymbolTableRecord
100
AcDbRegAppTableRecord
  2
ACAD
 70
0
  0
ENDTAB
  0
TABLE
  2
DIMSTYLE
  5
18
330
0
100
AcDbSymbolTable
 70
1
100
AcDbDimStyleTable
  0
DIMSTYLE
105
3D
330
18
100
AcDbSymbolTableRecord
100
AcDbDimStyleTableRecord
  2
Standard
 70
0
  0
ENDTAB
  0
TABLE
  2
BLOCK_RECORD
  5
19
330
0
100
AcDbSymbolTable
 70
2
  0
BLOCK_RECORD
  5
1A
330
19
100
AcDbSymbolTableRecord
100
AcDbBlockTableRecord
  2
*Model_Space
 70
0
  0
BLOCK_RECORD
  5
1B
330
19
100
AcDbSymbolTableRecord
100
AcDbBlockTableRecord
  2
*Paper_Space
 70
0
  0
ENDTAB
  0
ENDSEC
  0
SECTION
  2
BLOCKS
  0
BLOCK
  5
3E
330
1A
100
AcDbEntity
  8
0
100
AcDbBlockBegin
  2
*Model_Space
 70
0
 10
0
 20
0
 30
0
  3
*Model_Space
  1

  0
ENDBLK
  5
3F
330
1A
100
AcDbEntity
  8
0
100
AcDbBlockEnd
  0
BLOCK
  5
40
330
1B
100
AcDbEntity
 67
1
  8
0
100
AcDbBlockBegin
  2
*Paper_Space
 70
0
 10
0
 20
0
 30
0
  3
*Paper_Space
  1

  0
ENDBLK
  5
41
330
1B
100
AcDbEntity
 67
1
  8
0
100
AcDbBlockEnd
  0
ENDSEC
  0
SECTION
  2
ENTITIES
  0
LWPOLYLINE
  5
42
330
1A
100
AcDbEntity
  8
OUTLINE
370
25
100
AcDbPolyline
 90
112
 70
1
 43
0
 10
-13.2776546738526
 20
110
 10
-13.2776546738526
 20
10
 10
1.9999999999999998
 20
10
 10
2.130526192220051
 20
9.991444861373811
 10
2.2588190451025207
 20
9.965925826289068
 10
2.3826834323650896
 20
9.923879532511286
 10
2.4999999999999996
 20
9.86602540378444
 10
2.6087614290087204
 20
9.793353340291235
 10
2.707106781186547
 20
9.707106781186548
 10
2.793353340291235
 20
9.608761429008721
 10
2.8660254037844384
 20
9.5
 10
2.923879532511286
 20
9.38268343236509
 10
2.965925826289068
 20
9.25881904510252
 10
2.99144486137381
 20
9.130526192220051
 10
3
 20
9
 10
2.99144486137381
 20
8.869473807779949
 10
2.965925826289068
 20
8.74118095489748
 10
2.923879532511287
 20
8.61731656763491
 10
2.866025403784439
 20
8.5
 10
2.793353340291235
 20
8.39123857099128
 10
2.7071067811865475
 20
8.292893218813452
 10
2.6087614290087204
 20
8.206646659708765
 10
2.4999999999999996
 20
8.13397459621556
 10
2.38268343236509
 20
8.076120467488714
 10
2.2588190451025203
 20
8.034074173710932
 10
2.1305261922200525
 20
8.008555138626189
 10
1.9999999999999998
 20
8
 10
0
 20
8
 10
0
 20
-58.555309347705204
 10
200
 20
-58.555309347705204
 10
200
 20
8
 10
198
 20
8
 10
197.86947380777994
 20
8.008555138626189
 10
197.7411809548975
 20
8.034074173710932
 10
197.6173165676349
 20
8.076120467488714
 10
197.5
 20
8.13397459621556
 10
197.39123857099128
 20
8.206646659708765
 10
197.29289321881345
 20
8.292893218813452
 10
197.20664665970875
 20
8.39123857099128
 10
197.13397459621555
 20
8.5
 10
197.07612046748872
 20
8.61731656763491
 10
197.03407417371093
 20
8.74118095489748
 10
197.00855513862618
 20
8.869473807779949
 10
197
 20
9
 10
197.00855513862618
 20
9.130526192220051
 10
197.03407417371093
 20
9.25881904510252
 10
197.07612046748872
 20
9.38268343236509
 10
197.13397459621555
 20
9.5
 10
197.20664665970875
 20
9.608761429008721
 10
197.29289321881345
 20
9.707106781186548
 10
197.39123857099128
 20
9.793353340291235
 10
197.5
 20
9.86602540378444
 10
197.6173165676349
 20
9.923879532511286
 10
197.7411809548975
 20
9.965925826289068
 10
197.86947380777994
 20
9.991444861373811
 10
198
 20
10
 10
213.2776546738526
 20
10
 10
213.2776546738526
 20
110
 10
198
 20
110
 10
197.86947380777994
 20
110.00855513862619
 10
197.7411809548975
 20
110.03407417371093
 10
197.6173165676349
 20
110.0761204674887
 10
197.5
 20
110.13397459621557
 10
197.39123857099128
 20
110.20664665970877
 10
197.29289321881345
 20
110.29289321881345
 10
197.20664665970875
 20
110.39123857099128
 10
197.13397459621555
 20
110.5
 10
197.07612046748872
 20
110.61731656763492
 10
197.03407417371093
 20
110.74118095489747
 10
197.00855513862618
 20
110.86947380777995
 10
197
 20
111
 10
197.00855513862618
 20
111.13052619222005
 10
197.03407417371093
 20
111.25881904510253
 10
197.07612046748872
 20
111.38268343236508
 10
197.13397459621555
 20
111.5
 10
197.20664665970875
 20
111.60876142900872
 10
197.29289321881345
 20
111.70710678118655
 10
197.39123857099128
 20
111.79335334029123
 10
197.5
 20
111.86602540378443
 10
197.6173165676349
 20
111.9238795325113
 10
197.7411809548975
 20
111.96592582628907
 10
197.86947380777994
 20
111.99144486137381
 10
198
 20
112
 10
200
 20
112
 10
200
 20
178.5553093477052
 10
0
 20
178.5553093477052
 10
0
 20
112
 10
1.9999999999999998
 20
112
 10
2.1305261922200525
 20
111.99144486137381
 10
2.2588190451025203
 20
111.96592582628907
 10
2.38268343236509
 20
111.9238795325113
 10
2.4999999999999996
 20
111.86602540378443
 10
2.6087614290087204
 20
111.79335334029123
 10
2.7071067811865475
 20
111.70710678118655
 10
2.793353340291235
 20
111.60876142900872
 10
2.866025403784439
 20
111.5
 10
2.923879532511287
 20
111.38268343236508
 10
2.965925826289068
 20
111.25881904510253
 10
2.99144486137381
 20
111.13052619222005
 10
3
 20
111
 10
2.99144486137381
 20
110.86947380777995
 10
2.965925826289068
 20
110.74118095489747
 10
2.923879532511286
 20
110.61731656763492
 10
2.8660254037844384
 20
110.5
 10
2.793353340291235
 20
110.39123857099128
 10
2.707106781186547
 20
110.29289321881345
 10
2.6087614290087204
 20
110.20664665970877
 10
2.4999999999999996
 20
110.13397459621557
 10
2.3826834323650896
 20
110.0761204674887
 10
2.2588190451025207
 20
110.03407417371093
 10
2.130526192220051
 20
110.00855513862619
 10
1.9999999999999998
 20
110
  0
CIRCLE
  5
43
330
1A
100
AcDbEntity
  8
CUTOUTS
370
25
100
AcDbCircle
 10
14.999999999999996
 20
14.999999999999993
 30
0
 40
1.9999999999999993
  0
CIRCLE
  5
44
330
1A
100
AcDbEntity
  8
CUTOUTS
370
25
100
AcDbCircle
 10
14.999999999999996
 20
104.99999999999999
 30
0
 40
2.000000000000001
  0
LWPOLYLINE
  5
45
330
1A
100
AcDbEntity
  8
CUTOUTS
370
25
100
AcDbPolyline
 90
34
 70
1
 43
0
 10
57
 20
-35.2776546738526
 10
57
 20
-11.2776546738526
 10
57.05764415879031
 20
-10.692383707804215
 10
57.22836140246614
 20
-10.12960437675733
 10
57.50559116309236
 20
-9.610943974793793
 10
57.878679656440355
 20
-9.156334330292959
 10
58.333289300941196
 20
-8.783245836944964
 10
58.85194970290473
 20
-8.50601607631874
 10
59.414729033951616
 20
-8.33529883264291
 10
60
 20
-8.2776546738526
 10
60.585270966048384
 20
-8.33529883264291
 10
61.14805029709527
 20
-8.50601607631874
 10
61.666710699058804
 20
-8.783245836944964
 10
62.121320343559645
 20
-9.156334330292959
 10
62.49440883690764
 20
-9.610943974793795
 10
62.77163859753386
 20
-10.129604376757332
 10
62.94235584120969
 20
-10.692383707804217
 10
63
 20
-11.2776546738526
 10
63
 20
-35.2776546738526
 10
62.94235584120969
 20
-35.862925639900986
 10
62.77163859753386
 20
-36.42570497094787
 10
62.49440883690764
 20
-36.944365372911406
 10
62.121320343559645
 20
-37.39897501741225
 10
61.666710699058804
 20
-37.77206351076024
 10
61.14805029709527
 20
-38.04929327138646
 10
60.585270966048384
 20
-38.22001051506229
 10
60
 20
-38.2776546738526
 10
59.414729033951616
 20
-38.22001051506229
 10
58.85194970290473
 20
-38.04929327138646
 10
58.333289300941196
 20
-37.77206351076024
 10
57.878679656440355
 20
-37.39897501741225
 10
57.50559116309236
 20
-36.944365372911406
 10
57.22836140246614
 20
-36.42570497094787
 10
57.05764415879031
 20
-35.862925639900986
  0
CIRCLE
  5
46
330
1A
100
AcDbEntity
  8
CUTOUTS
370
25
100
AcDbCircle
 10
100.00000000000001
 20
59.99999999999998
 30
0
 40
30.000000000000004
  0
LWPOLYLINE
  5
47
330
1A
100
AcDbEntity
  8
CUTOUTS
370
25
100
AcDbPolyline
 90
4
 70
1
 43
0
 10
80
 20
133.2776546738526
 10
80
 20
153.2776546738526
 10
120
 20
153.2776546738526
 10
120
 20
133.2776546738526
  0
LWPOLYLINE
  5
48
330
1A
100
AcDbEntity
  8
CUTOUTS
370
25
100
AcDbPolyline
 90
34
 70
1
 43
0
 10
97
 20
-35.2776546738526
 10
97
 20
-11.2776546738526
 10
97.05764415879031
 20
-10.692383707804215
 10
97.22836140246613
 20
-10.12960437675733
 10
97.50559116309236
 20
-9.610943974793793
 10
97.87867965644035
 20
-9.156334330292959
 10
98.33328930094119
 20
-8.783245836944964
 10
98.85194970290473
 20
-8.50601607631874
 10
99.41472903395162
 20
-8.33529883264291
 10
100
 20
-8.2776546738526
 10
100.58527096604838
 20
-8.33529883264291
 10
101.14805029709527
 20
-8.50601607631874
 10
101.66671069905881
 20
-8.783245836944964
 10
102.12132034355965
 20
-9.156334330292959
 10
102.49440883690764
 20
-9.610943974793795
 10
102.77163859753387
 20
-10.129604376757332
 10
102.94235584120969
 20
-10.692383707804217
 10
103
 20
-11.2776546738526
 10
103
 20
-35.2776546738526
 10
102.94235584120969
 20
-35.862925639900986
 10
102.77163859753387
 20
-36.42570497094787
 10
102.49440883690764
 20
-36.944365372911406
 10
102.12132034355965
 20
-37.39897501741225
 10
101.66671069905881
 20
-37.77206351076024
 10
101.14805029709527
 20
-38.04929327138646
 10
100.58527096604838
 20
-38.22001051506229
 10
100
 20
-38.2776546738526
 10
99.41472903395162
 20
-38.22001051506229
 10
98.85194970290473
 20
-38.04929327138646
 10
98.33328930094119
 20
-37.77206351076024
 10
97.87867965644035
 20
-37.39897501741225
 10
97.50559116309236
 20
-36.944365372911406
 10
97.22836140246613
 20
-36.42570497094787
 10
97.05764415879031
 20
-35.862925639900986
  0
LWPOLYLINE
  5
49
330
1A
100
AcDbEntity
  8
CUTOUTS
370
25
100
AcDbPolyline
 90
34
 70
1
 43
0
 10
137
 20
-35.2776546738526
 10
137
 20
-11.2776546738526
 10
137.0576441587903
 20
-10.692383707804215
 10
137.22836140246613
 20
-10.12960437675733
 10
137.50559116309236
 20
-9.610943974793793
 10
137.87867965644037
 20
-9.156334330292959
 10
138.3332893009412
 20
-8.783245836944964
 10
138.85194970290473
 20
-8.50601607631874
 10
139.4147290339516
 20
-8.33529883264291
 10
140
 20
-8.2776546738526
 10
140.5852709660484
 20
-8.33529883264291
 10
141.14805029709527
 20
-8.50601607631874
 10
141.6667106990588
 20
-8.783245836944964
 10
142.12132034355963
 20
-9.156334330292959
 10
142.49440883690764
 20
-9.610943974793795
 10
142.77163859753387
 20
-10.129604376757332
 10
142.9423558412097
 20
-10.692383707804217
 10
143
 20
-11.2776546738526
 10
143
 20
-35.2776546738526
 10
142.9423558412097
 20
-35.862925639900986
 10
142.77163859753387
 20
-36.42570497094787
 10
142.49440883690764
 20
-36.944365372911406
 10
142.12132034355963
 20
-37.39897501741225
 10
141.6667106990588
 20
-37.77206351076024
 10
141.14805029709527
 20
-38.04929327138646
 10
140.5852709660484
 20
-38.22001051506229
 10
140
 20
-38.2776546738526
 10
139.4147290339516
 20
-38.22001051506229
 10
138.85194970290473
 20
-38.04929327138646
 10
138.3332893009412
 20
-37.77206351076024
 10
137.87867965644037
 20
-37.39897501741225
 10
137.50559116309236
 20
-36.944365372911406
 10
137.22836140246613
 20
-36.42570497094787
 10
137.0576441587903
 20
-35.862925639900986
  0
CIRCLE
  5
4A
330
1A
100
AcDbEntity
  8
CUTOUTS
370
25
100
AcDbCircle
 10
185
 20
14.999999999999993
 30
0
 40
2.0000000000000004
  0
CIRCLE
  5
4B
330
1A
100
AcDbEntity
  8
CUTOUTS
370
25
100
AcDbCircle
 10
185
 20
104.99999999999999
 30
0
 40
2.000000000000001
  0
LINE
  5
4C
330
1A
100
AcDbEntity
  8
BEND_UP
  6
PHANTOM
370
25
100
AcDbLine
 10
200
 20
0.8611726630736998
 30
0
 11
0
 21
0.8611726630736998
 31
0
  0
LINE
  5
4D
330
1A
100
AcDbEntity
  8
BEND_UP
  6
PHANTOM
370
25
100
AcDbLine
 10
0
 20
119.1388273369263
 30
0
 11
200
 21
119.1388273369263
 31
0
  0
LINE
  5
4E
330
1A
100
AcDbEntity
  8
BEND_UP
  6
PHANTOM
370
25
100
AcDbLine
 10
0
 20
-47.4164820107789
 30
0
 11
200
 21
-47.4164820107789
 31
0
  0
LINE
  5
4F
330
1A
100
AcDbEntity
  8
BEND_UP
  6
PHANTOM
370
25
100
AcDbLine
 10
0
 20
167.4164820107789
 30
0
 11
200
 21
167.4164820107789
 31
0
  0
LINE
  5
50
330
1A
100
AcDbEntity
  8
BEND_UP
  6
PHANTOM
370
25
100
AcDbLine
 10
199.1388273369263
 20
10
 30
0
 11
199.1388273369263
 21
110
 31
0
  0
LINE
  5
51
330
1A
100
AcDbEntity
  8
BEND_UP
  6
PHANTOM
370
25
100
AcDbLine
 10
0.8611726630736998
 20
110
 30
0
 11
0.8611726630736998
 21
10
 31
0
  0
ENDSEC
  0
SECTION
  2
OBJECTS
  0
DICTIONARY
  5
1C
330
0
100
AcDbDictionary
281
1
  3
ACAD_GROUP
350
1D
  0
DICTIONARY
  5
1D
330
1C
100
AcDbDictionary
281
1
  0
ENDSEC
  0
EOF
