  0
SECTION
  2
HEADER
  9
$ACADVER
  1
AC1027
  9
$DWGCODEPAGE
  3
ANSI_1252
  9
$INSBASE
 10
0
 20
0
 30
0
  9
$EXTMIN
 10
0
 20
0
 30
0
  9
$EXTMAX
 10
17
 20
6
 30
0
  9
$LIMMIN
 10
0
 20
0
  9
$LIMMAX
 10
17
 20
6
  9
$LTSCALE
 40
1
  9
$PSLTSCALE
 70
0
  9
$INSUNITS
 70
4
  9
$MEASUREMENT
 70
1
  9
$LUNITS
 70
2
  9
$LWDISPLAY
290
1
  9
$HANDSEED
  5
42
  0
ENDSEC
  0
SECTION
  2
CLASSES
  0
ENDSEC
  0
SECTION
  2
TABLES
  0
TABLE
  2
VPORT
  5
11
330
0
100
AcDbSymbolTable
 70
1
  0
VPORT
  5
1E
330
11
100
AcDbSymbolTableRecord
100
AcDbViewportTableRecord
  2
*Active
 70
0
 10
0
 20
0
 11
1
 21
1
 12
8.5
 22
3
 13
0
 23
0
 14
10
 24
10
 15
10
 25
10
 16
0
 26
0
 36
1
 17
0
 27
0
 37
0
 40
6.6000000000000005
 41
2.8333333333333335
 42
50
 43
0
 44
0
 50
0
 51
0
 71
0
 72
100
 73
1
 74
3
 75
0
 76
0
 77
0
 78
0
  0
ENDTAB
  0
TABLE
  2
LTYPE
  5
12
330
0
100
AcDbSymbolTable
 70
5
  0
LTYPE
  5
1F
330
12
100
AcDbSymbolTableRecord
100
AcDbLinetypeTableRecord
  2
ByBlock
 70
0
  3

 72
65
 73
0
 40
0
  0
LTYPE
  5
20
330
12
100
AcDbSymbolTableRecord
100
AcDbLinetypeTableRecord
  2
ByLayer
 70
0
  3

 72
65
 73
0
 40
0
  0
LTYPE
  5
21
330
12
100
AcDbSymbolTableRecord
100
AcDbLinetypeTableRecord
  2
Continuous
 70
0
  3
Solid line
 72
65
 73
0
 40
0
  0
LTYPE
  5
22
330
12
100
AcDbSymbolTableRecord
100
AcDbLinetypeTableRecord
  2
HIDDEN
 70
0
  3
Hidden __ __ __
 72
65
 73
2
 40
2.8
 49
2
 74
0
 49
-0.8
 74
0
  0
LTYPE
  5
23
330
12
100
AcDbSymbolTableRecord
100
AcDbLinetypeTableRecord
  2
PHANTOM
 70
0
  3
Phantom ____ _ _ ____
 72
65
 73
6
 40
7.999999999999999
 49
4
 74
0
 49
-0.8
 74
0
 49
0.8
 74
0
 49
-0.8
 74
0
 49
0.8
 74
0
 49
-0.8
 74
0
  0
ENDTAB
  0
TABLE
  2
LAYER
  5
13
330
0
100
AcDbSymbolTable
 70
15
  0
LAYER
  5
24
330
13
100
AcDbSymbolTableRecord
100
AcDbLayerTableRecord
  2
0
 70
0
 62
7
  6
Continuous
370
-3
  0
LAYER
  5
25
330
13
100
AcDbSymbolTableRecord
100
AcDbLayerTableRecord
  2
BORDER
 70
0
 62
7
  6
Continuous
370
-3
  0
LAYER
  5
26
330
13
100
AcDbSymbolTableRecord
100
AcDbLayerTableRecord
  2
VISIBLE
 70
0
 62
7
  6
Continuous
370
-3
  0
LAYER
  5
27
330
13
100
AcDbSymbolTableRecord
100
AcDbLayerTableRecord
  2
HIDDEN
 70
0
 62
7
  6
HIDDEN
370
-3
  0
LAYER
  5
28
330
13
100
AcDbSymbolTableRecord
100
AcDbLayerTableRecord
  2
TANGENT
 70
0
 62
7
  6
Continuous
370
-3
  0
LAYER
  5
29
330
13
100
AcDbSymbolTableRecord
100
AcDbLayerTableRecord
  2
PHANTOM
 70
0
 62
7
  6
PHANTOM
370
-3
  0
LAYER
  5
2A
330
13
100
AcDbSymbolTableRecord
100
AcDbLayerTableRecord
  2
VIEW_SKETCH
 70
0
 62
7
  6
Continuous
370
-3
  0
LAYER
  5
2B
330
13
100
AcDbSymbolTableRecord
100
AcDbLayerTableRecord
  2
ANNOTATION
 70
0
 62
7
  6
Continuous
370
-3
  0
LAYER
  5
2C
330
13
100
AcDbSymbolTableRecord
100
AcDbLayerTableRecord
  2
NOTES
 70
0
 62
7
  6
Continuous
370
-3
  0
LAYER
  5
2D
330
13
100
AcDbSymbolTableRecord
100
AcDbLayerTableRecord
  2
TABLES
 70
0
 62
7
  6
Continuous
370
-3
  0
LAYER
  5
2E
330
13
100
AcDbSymbolTableRecord
100
AcDbLayerTableRecord
  2
SHEET_SKETCH
 70
0
 62
7
  6
Continuous
370
-3
  0
LAYER
  5
2F
330
13
100
AcDbSymbolTableRecord
100
AcDbLayerTableRecord
  2
IMPORT
 70
0
 62
7
  6
Continuous
370
-3
  0
LAYER
  5
30
330
13
100
AcDbSymbolTableRecord
100
AcDbLayerTableRecord
  2
SHADED
 70
0
 62
7
  6
Continuous
370
-3
  0
LAYER
  5
31
330
13
100
AcDbSymbolTableRecord
100
AcDbLayerTableRecord
  2
IMAGES
 70
0
 62
7
  6
Continuous
370
-3
  0
LAYER
  5
32
330
13
100
AcDbSymbolTableRecord
100
AcDbLayerTableRecord
  2
HATCH
 70
0
 62
7
  6
Continuous
370
-3
  0
ENDTAB
  0
TABLE
  2
STYLE
  5
14
330
0
100
AcDbSymbolTable
 70
2
  0
STYLE
  5
33
330
14
100
AcDbSymbolTableRecord
100
AcDbTextStyleTableRecord
  2
Standard
 70
0
 40
0
 41
1
 50
0
 71
0
 42
2.5
  3
txt
  4

  0
STYLE
  5
34
330
14
100
AcDbSymbolTableRecord
100
AcDbTextStyleTableRecord
  2
INTER
 70
0
 40
0
 41
1
 50
0
 71
0
 42
2.5
  3
Inter-Medium.ttf
  4

  0
ENDTAB
  0
TABLE
  2
VIEW
  5
15
330
0
100
AcDbSymbolTable
 70
0
  0
ENDTAB
  0
TABLE
  2
UCS
  5
16
330
0
100
AcDbSymbolTable
 70
0
  0
ENDTAB
  0
TABLE
  2
APPID
  5
17
330
0
100
AcDbSymbolTable
 70
1
  0
APPID
  5
35
330
17
100
AcDbSymbolTableRecord
100
AcDbRegAppTableRecord
  2
ACAD
 70
0
  0
ENDTAB
  0
TABLE
  2
DIMSTYLE
  5
18
330
0
100
AcDbSymbolTable
 70
1
100
AcDbDimStyleTable
  0
DIMSTYLE
105
36
330
18
100
AcDbSymbolTableRecord
100
AcDbDimStyleTableRecord
  2
Standard
 70
0
  0
ENDTAB
  0
TABLE
  2
BLOCK_RECORD
  5
19
330
0
100
AcDbSymbolTable
 70
2
  0
BLOCK_RECORD
  5
1A
330
19
100
AcDbSymbolTableRecord
100
AcDbBlockTableRecord
  2
*Model_Space
 70
0
280
1
281
0
  0
BLOCK_RECORD
  5
1B
330
19
100
AcDbSymbolTableRecord
100
AcDbBlockTableRecord
  2
*Paper_Space
 70
0
280
1
281
0
  0
ENDTAB
  0
ENDSEC
  0
SECTION
  2
BLOCKS
  0
BLOCK
  5
37
330
1A
100
AcDbEntity
  8
0
100
AcDbBlockBegin
  2
*Model_Space
 70
0
 10
0
 20
0
 30
0
  3
*Model_Space
  1

  0
ENDBLK
  5
38
330
1A
100
AcDbEntity
  8
0
100
AcDbBlockEnd
  0
BLOCK
  5
39
330
1B
100
AcDbEntity
 67
1
  8
0
100
AcDbBlockBegin
  2
*Paper_Space
 70
0
 10
0
 20
0
 30
0
  3
*Paper_Space
  1

  0
ENDBLK
  5
3A
330
1B
100
AcDbEntity
 67
1
  8
0
100
AcDbBlockEnd
  0
ENDSEC
  0
SECTION
  2
ENTITIES
  0
CIRCLE
  5
3B
330
1A
100
AcDbEntity
  8
IMPORT
370
25
100
AcDbCircle
 10
3
 20
3
 30
0
 40
2.5
  0
ARC
  5
3C
330
1A
100
AcDbEntity
  8
IMPORT
370
25
100
AcDbCircle
 10
3
 20
3
 30
0
 40
1.6
100
AcDbArc
 50
30
 51
330
  0
LINE
  5
3D
330
1A
100
AcDbEntity
  8
IMPORT
370
25
100
AcDbLine
 10
3
 20
3
 30
0
 11
4.6
 21
3.9
 31
0
  0
LINE
  5
3E
330
1A
100
AcDbEntity
  8
IMPORT
370
25
100
AcDbLine
 10
3
 20
3
 30
0
 11
4.6
 21
2.1
 31
0
  0
SPLINE
  5
3F
330
1A
100
AcDbEntity
  8
IMPORT
370
25
100
AcDbSpline
210
0
220
0
230
1
 70
8
 71
3
 72
14
 73
10
 74
4
 42
0.0000000001
 43
0.0000000001
 44
0.0000000001
 40
0
 40
0
 40
0
 40
0
 40
1
 40
1
 40
1
 40
2
 40
2
 40
2
 40
3
 40
3
 40
3
 40
3
 10
7
 20
0.6
 30
0
 10
8.011111111111111
 20
1.028888888888889
 30
0
 10
9.022222222222222
 20
1.4577777777777776
 30
0
 10
10
 20
1.4
 30
0
 10
10.977777777777778
 20
1.3422222222222222
 30
0
 10
11.922222222222222
 20
0.7977777777777778
 30
0
 10
13
 20
0.7
 30
0
 10
14.077777777777778
 20
0.6022222222222221
 30
0
 10
15.288888888888888
 20
0.951111111111111
 30
0
 10
16.5
 20
1.3
 30
0
 11
7
 21
0.6
 31
0
 11
10
 21
1.4
 31
0
 11
13
 21
0.7
 31
0
 11
16.5
 21
1.3
 31
0
  0
SOLID
  5
40
330
1A
100
AcDbEntity
  8
IMPORT
100
AcDbTrace
 10
1.6
 20
2.5
 30
0
 11
2.4
 21
3
 31
0
 12
1.6
 22
3.5
 32
0
 13
1.6
 23
3.5
 33
0
  0
TEXT
  5
41
330
1A
100
AcDbEntity
  8
IMPORT
100
AcDbText
 10
7
 20
2.3
 30
0
 40
2.4
  1
cadrs
  7
INTER
100
AcDbText
  0
ENDSEC
  0
SECTION
  2
OBJECTS
  0
DICTIONARY
  5
1C
330
0
100
AcDbDictionary
281
1
  3
ACAD_GROUP
350
1D
  0
DICTIONARY
  5
1D
330
1C
100
AcDbDictionary
281
1
  0
ENDSEC
  0
EOF
